<svg width="512" height="512" viewBox="0 0 512 512" fill="none" xmlns="http://www.w3.org/2000/svg">
<path d="M256 0C397.385 0 512 114.615 512 256C512 397.385 397.385 512 256 512C114.615 512 0 397.385 0 256C0 114.615 114.615 0 256 0ZM200.384 360.058C200.384 382.004 240.211 399.795 289.339 399.795C289.341 399.795 289.344 399.795 289.346 399.795V360.056H200.384V360.058ZM289.337 112.001C240.211 112.004 200.388 148.663 200.388 193.884C200.388 194.939 200.409 195.99 200.452 197.036L125.91 169.619C115.331 165.728 103.116 170.956 98.627 181.296C94.1384 191.636 99.0768 203.173 109.656 207.064L154.029 223.385C144.513 221.87 134.616 227.007 130.675 236.086C126.187 246.426 131.124 257.962 141.703 261.854L201.931 284.006C192.779 283.064 183.514 288.147 179.732 296.858C175.244 307.198 180.182 318.735 190.761 322.626L292.287 359.969C291.316 360.026 290.336 360.058 289.35 360.059V399.795C338.475 399.792 378.297 363.133 378.298 317.912C378.298 286.404 358.965 259.052 330.622 245.36C329.479 244.648 328.239 244.038 326.91 243.549L324.101 242.515C322.94 242.061 321.766 241.629 320.58 241.22L249.843 215.202C245.85 208.948 243.558 201.663 243.558 193.884C243.558 172.753 260.451 155.255 282.483 152.208C292.724 161.311 309.043 161.212 319.15 151.908L319.152 151.906L318.969 151.737H332.508V151.736H345.585V151.735C345.585 139.865 336.254 130.001 323.976 128.017C316.106 118.296 303.521 112 289.339 112H289.337V112.001Z" fill="white"/>
</svg>
